<svg width="47" height="46" viewBox="0 0 47 46" fill="none" xmlns="http://www.w3.org/2000/svg">
<path d="M2.55542 22.9998L0.993682 21.7504L-0.00582986 22.9998L0.993682 24.2492L2.55542 22.9998ZM21.5554 24.9998C22.66 24.9998 23.5554 24.1043 23.5554 22.9998C23.5554 21.8952 22.66 20.9998 21.5554 20.9998V24.9998ZM22.7867 5.55381L22.4579 3.58103L22.4579 3.58103L22.7867 5.55381ZM37.7913 3.05306L37.4625 1.08027L37.4625 1.08027L37.7913 3.05306ZM37.7912 42.9465L38.12 40.9737L38.12 40.9737L37.7912 42.9465ZM22.7867 40.4457L23.1155 38.4729L23.1155 38.4729L22.7867 40.4457ZM19.9183 39.4872L21.4443 38.1944L21.4443 38.1944L19.9183 39.4872ZM43.7168 3.14098L42.424 4.66702L42.424 4.66702L43.7168 3.14098ZM9.43813 11.1948L0.993682 21.7504L4.11716 24.2492L12.5616 13.6936L9.43813 11.1948ZM0.993682 24.2492L9.43813 34.8047L12.5616 32.3059L4.11716 21.7504L0.993682 24.2492ZM2.55542 24.9998H21.5554V20.9998H2.55542V24.9998ZM23.1155 7.5266L38.1201 5.02584L37.4625 1.08027L22.4579 3.58103L23.1155 7.5266ZM42.7776 8.97142V37.0281H46.7776V8.97142H42.7776ZM38.12 40.9737L23.1155 38.4729L22.4579 42.4185L37.4625 44.9193L38.12 40.9737ZM21.4443 14.8339V9.49939H17.4443V14.8339H21.4443ZM21.4443 36.5001V31.5835H17.4443V36.5001H21.4443ZM23.1155 38.4729C22.2667 38.3315 21.8133 38.2522 21.5023 38.1596C21.2448 38.083 21.3353 38.0657 21.4443 38.1944L18.3922 40.7799C18.9752 41.4681 19.7018 41.7971 20.3609 41.9933C20.9666 42.1736 21.7104 42.2939 22.4579 42.4185L23.1155 38.4729ZM17.4443 36.5001C17.4443 37.258 17.4407 38.0114 17.519 38.6385C17.6042 39.321 17.8092 40.0917 18.3922 40.7799L21.4443 38.1944C21.5533 38.3231 21.5214 38.4095 21.4881 38.1429C21.4479 37.821 21.4443 37.3607 21.4443 36.5001H17.4443ZM42.7776 37.0281C42.7776 38.7331 42.7729 39.7974 42.6649 40.5582C42.6143 40.9145 42.5521 41.108 42.5059 41.2107C42.469 41.2929 42.4437 41.3158 42.424 41.3325L45.0095 44.3846C46.073 43.4837 46.4601 42.2834 46.6252 41.1203C46.7824 40.0126 46.7776 38.6109 46.7776 37.0281H42.7776ZM37.4625 44.9193C39.0237 45.1795 40.4055 45.4146 41.524 45.4416C42.6985 45.47 43.946 45.2855 45.0095 44.3846L42.424 41.3325C42.4043 41.3492 42.3775 41.3704 42.2904 41.3933C42.1815 41.422 41.9804 41.4515 41.6206 41.4428C40.8524 41.4242 39.8019 41.254 38.12 40.9737L37.4625 44.9193ZM38.1201 5.02584C39.8019 4.74554 40.8524 4.57529 41.6206 4.55673C41.9804 4.54804 42.1815 4.57758 42.2904 4.60625C42.3775 4.62917 42.4043 4.65032 42.424 4.66702L45.0095 1.61494C43.946 0.714042 42.6985 0.529524 41.524 0.557897C40.4055 0.58492 39.0237 0.820058 37.4625 1.08027L38.1201 5.02584ZM46.7776 8.97142C46.7776 7.38862 46.7824 5.98697 46.6252 4.87922C46.4601 3.71612 46.073 2.51584 45.0095 1.61494L42.424 4.66702C42.4437 4.68372 42.469 4.70664 42.5059 4.78879C42.5521 4.89154 42.6143 5.08508 42.6649 5.44133C42.7729 6.20217 42.7776 7.26639 42.7776 8.97142H46.7776ZM22.4579 3.58103C21.7104 3.70561 20.9666 3.82589 20.3609 4.00621C19.7018 4.20245 18.9752 4.53145 18.3922 5.21964L21.4443 7.80513C21.3353 7.93383 21.2448 7.91657 21.5023 7.83991C21.8133 7.74733 22.2667 7.66807 23.1155 7.5266L22.4579 3.58103ZM21.4443 9.49939C21.4443 8.63886 21.4479 8.17859 21.4881 7.8566C21.5214 7.59002 21.5533 7.67644 21.4443 7.80513L18.3922 5.21964C17.8092 5.90782 17.6042 6.67858 17.519 7.36104C17.4407 7.98809 17.4443 8.74158 17.4443 9.49939H21.4443Z" fill="#AF86DD"/>
</svg>
